<mxfile host="app.diagrams.net" modified="2023-10-11T04:58:20.734Z" agent="Mozilla/5.0 (Macintosh; Intel Mac OS X 10.15; rv:109.0) Gecko/20100101 Firefox/118.0" version="22.0.4" etag="f7XIENV9q-36cdOp6RaI" type="github">
  <diagram name="Page-1" id="P4yFwpzSlVdzYnVJ7ATF">
    <mxGraphModel>
      <root>
        <mxCell id="0" />
        <mxCell id="1" parent="0" />
      </root>
    </mxGraphModel>
  </diagram>
</mxfile>
